<?xml version="1.0" encoding="utf-8"?>
<!-- Generator: Adobe Illustrator 24.1.0, SVG Export Plug-In . SVG Version: 6.00 Build 0)  -->
<svg version="1.1" id="Layer_1" xmlns="http://www.w3.org/2000/svg" xmlns:xlink="http://www.w3.org/1999/xlink" x="0px" y="0px"
	 viewBox="0 0 1152 432" style="enable-background:new 0 0 1152 432;" xml:space="preserve">
<style type="text/css">
	.st0{fill:#FDBE6F;}
	.st1{fill:none;stroke:#000000;stroke-width:0.22;stroke-linecap:round;stroke-linejoin:round;stroke-miterlimit:10;}
	.st2{fill:#FF8001;}
	.st3{fill:#B0DD8B;}
	.st4{fill:#36A12E;}
	.st5{fill:#FDCAB5;}
	.st6{fill:#FC8A6A;}
	.st7{fill:#F14432;}
	.st8{fill:#BC141A;}
	.st9{fill:#D0E1F2;}
	.st10{fill:#94C4DF;}
	.st11{fill:#4A98C9;}
	.st12{fill:#1764AB;}
	.st13{fill:#E2E2EF;}
	.st14{fill:#B6B6D8;}
	.st15{fill:#8683BD;}
	.st16{fill:#61409B;}
	.st17{fill:#262626;}
	.st18{font-family:'Helvetica-Bold';}
	.st19{font-size:10px;}
	.st20{font-family:'Helvetica-Light';}
	.st21{font-size:9px;}
	.st22{clip-path:url(#SVGID_2_);}
	.st23{fill:none;stroke:#000000;stroke-width:0.38;stroke-linecap:round;stroke-linejoin:round;stroke-miterlimit:10;}
	.st24{font-size:11px;}
	.st25{font-size:7px;}
	.st26{fill:#FFFFFF;}
	.st27{font-family:'Symbol';}
</style>
<rect x="57.87" y="335.32" class="st0" width="10.89" height="34.53"/>
<rect x="57.87" y="335.32" class="st1" width="10.89" height="34.53"/>
<path class="st0" d="M70.39,369.85h10.89H70.39z"/>
<path class="st1" d="M70.39,369.85h10.89H70.39z"/>
<path class="st0" d="M82.92,369.85h10.89H82.92z"/>
<path class="st1" d="M82.92,369.85h10.89H82.92z"/>
<path class="st0" d="M95.45,369.85h10.89H95.45z"/>
<path class="st1" d="M95.45,369.85h10.89H95.45z"/>
<path class="st0" d="M107.98,369.85h10.89H107.98z"/>
<path class="st1" d="M107.98,369.85h10.89H107.98z"/>
<path class="st0" d="M120.5,369.85h10.89H120.5z"/>
<path class="st1" d="M120.5,369.85h10.89H120.5z"/>
<path class="st2" d="M133.03,369.85h10.89H133.03z"/>
<path class="st1" d="M133.03,369.85h10.89H133.03z"/>
<path class="st2" d="M145.56,369.85h10.89H145.56z"/>
<path class="st1" d="M145.56,369.85h10.89H145.56z"/>
<path class="st2" d="M158.09,369.85h10.89H158.09z"/>
<path class="st1" d="M158.09,369.85h10.89H158.09z"/>
<path class="st2" d="M170.61,369.85h10.89H170.61z"/>
<path class="st1" d="M170.61,369.85h10.89H170.61z"/>
<path class="st2" d="M183.14,369.85h10.89H183.14z"/>
<path class="st1" d="M183.14,369.85h10.89H183.14z"/>
<rect x="195.67" y="300.78" class="st2" width="10.89" height="69.07"/>
<rect x="195.67" y="300.78" class="st1" width="10.89" height="69.07"/>
<rect x="208.2" y="300.78" class="st3" width="10.89" height="69.07"/>
<rect x="208.2" y="300.78" class="st1" width="10.89" height="69.07"/>
<path class="st3" d="M220.72,369.85h10.89H220.72z"/>
<path class="st1" d="M220.72,369.85h10.89H220.72z"/>
<rect x="233.25" y="335.32" class="st3" width="10.89" height="34.53"/>
<rect x="233.25" y="335.32" class="st1" width="10.89" height="34.53"/>
<path class="st3" d="M245.78,369.85h10.89H245.78z"/>
<path class="st1" d="M245.78,369.85h10.89H245.78z"/>
<path class="st3" d="M258.3,369.85h10.89H258.3z"/>
<path class="st1" d="M258.3,369.85h10.89H258.3z"/>
<path class="st3" d="M270.83,369.85h10.89H270.83z"/>
<path class="st1" d="M270.83,369.85h10.89H270.83z"/>
<rect x="283.36" y="266.25" class="st4" width="10.89" height="103.6"/>
<rect x="283.36" y="266.25" class="st1" width="10.89" height="103.6"/>
<path class="st4" d="M295.89,369.85h10.89H295.89z"/>
<path class="st1" d="M295.89,369.85h10.89H295.89z"/>
<path class="st4" d="M308.41,369.85h10.89H308.41z"/>
<path class="st1" d="M308.41,369.85h10.89H308.41z"/>
<rect x="320.94" y="335.32" class="st4" width="10.89" height="34.53"/>
<rect x="320.94" y="335.32" class="st1" width="10.89" height="34.53"/>
<path class="st4" d="M333.47,369.85h10.89H333.47z"/>
<path class="st1" d="M333.47,369.85h10.89H333.47z"/>
<rect x="346" y="335.32" class="st4" width="10.89" height="34.53"/>
<rect x="346" y="335.32" class="st1" width="10.89" height="34.53"/>
<path class="st5" d="M358.52,369.85h10.89H358.52z"/>
<path class="st1" d="M358.52,369.85h10.89H358.52z"/>
<path class="st5" d="M371.05,369.85h10.89H371.05z"/>
<path class="st1" d="M371.05,369.85h10.89H371.05z"/>
<path class="st5" d="M383.58,369.85h10.89H383.58z"/>
<path class="st1" d="M383.58,369.85h10.89H383.58z"/>
<rect x="396.11" y="335.32" class="st5" width="10.89" height="34.53"/>
<rect x="396.11" y="335.32" class="st1" width="10.89" height="34.53"/>
<rect x="408.63" y="231.71" class="st5" width="10.89" height="138.14"/>
<rect x="408.63" y="231.71" class="st1" width="10.89" height="138.14"/>
<rect x="421.16" y="300.78" class="st5" width="10.89" height="69.07"/>
<rect x="421.16" y="300.78" class="st1" width="10.89" height="69.07"/>
<rect x="433.69" y="300.78" class="st6" width="10.89" height="69.07"/>
<rect x="433.69" y="300.78" class="st1" width="10.89" height="69.07"/>
<rect x="446.22" y="300.78" class="st6" width="10.89" height="69.07"/>
<rect x="446.22" y="300.78" class="st1" width="10.89" height="69.07"/>
<path class="st6" d="M458.74,369.85h10.89H458.74z"/>
<path class="st1" d="M458.74,369.85h10.89H458.74z"/>
<rect x="471.27" y="300.78" class="st6" width="10.89" height="69.07"/>
<rect x="471.27" y="300.78" class="st1" width="10.89" height="69.07"/>
<rect x="483.8" y="128.11" class="st6" width="10.89" height="241.74"/>
<rect x="483.8" y="128.11" class="st1" width="10.89" height="241.74"/>
<rect x="496.33" y="300.78" class="st6" width="10.89" height="69.07"/>
<rect x="496.33" y="300.78" class="st1" width="10.89" height="69.07"/>
<path class="st7" d="M508.85,369.85h10.89H508.85z"/>
<path class="st1" d="M508.85,369.85h10.89H508.85z"/>
<path class="st7" d="M521.38,369.85h10.89H521.38z"/>
<path class="st1" d="M521.38,369.85h10.89H521.38z"/>
<path class="st7" d="M533.91,369.85h10.89H533.91z"/>
<path class="st1" d="M533.91,369.85h10.89H533.91z"/>
<rect x="546.43" y="335.32" class="st7" width="10.89" height="34.53"/>
<rect x="546.43" y="335.32" class="st1" width="10.89" height="34.53"/>
<rect x="558.96" y="335.32" class="st7" width="10.89" height="34.53"/>
<rect x="558.96" y="335.32" class="st1" width="10.89" height="34.53"/>
<path class="st7" d="M571.49,369.85h10.89H571.49z"/>
<path class="st1" d="M571.49,369.85h10.89H571.49z"/>
<rect x="584.02" y="128.11" class="st8" width="10.89" height="241.74"/>
<rect x="584.02" y="128.11" class="st1" width="10.89" height="241.74"/>
<path class="st8" d="M596.54,369.85h10.89H596.54z"/>
<path class="st1" d="M596.54,369.85h10.89H596.54z"/>
<rect x="609.07" y="335.32" class="st8" width="10.89" height="34.53"/>
<rect x="609.07" y="335.32" class="st1" width="10.89" height="34.53"/>
<path class="st8" d="M621.6,369.85h10.89H621.6z"/>
<path class="st1" d="M621.6,369.85h10.89H621.6z"/>
<path class="st8" d="M634.13,369.85h10.89H634.13z"/>
<path class="st1" d="M634.13,369.85h10.89H634.13z"/>
<path class="st8" d="M646.65,369.85h10.89H646.65z"/>
<path class="st1" d="M646.65,369.85h10.89H646.65z"/>
<rect x="659.18" y="231.71" class="st9" width="10.89" height="138.14"/>
<rect x="659.18" y="231.71" class="st1" width="10.89" height="138.14"/>
<path class="st9" d="M671.71,369.85h10.89H671.71z"/>
<path class="st1" d="M671.71,369.85h10.89H671.71z"/>
<path class="st9" d="M684.24,369.85h10.89H684.24z"/>
<path class="st1" d="M684.24,369.85h10.89H684.24z"/>
<rect x="696.76" y="335.32" class="st9" width="10.89" height="34.53"/>
<rect x="696.76" y="335.32" class="st1" width="10.89" height="34.53"/>
<path class="st9" d="M709.29,369.85h10.89H709.29z"/>
<path class="st1" d="M709.29,369.85h10.89H709.29z"/>
<path class="st9" d="M721.82,369.85h10.89H721.82z"/>
<path class="st1" d="M721.82,369.85h10.89H721.82z"/>
<path class="st10" d="M734.35,369.85h10.89H734.35z"/>
<path class="st1" d="M734.35,369.85h10.89H734.35z"/>
<path class="st10" d="M746.87,369.85h10.89H746.87z"/>
<path class="st1" d="M746.87,369.85h10.89H746.87z"/>
<rect x="759.4" y="335.32" class="st10" width="10.89" height="34.53"/>
<rect x="759.4" y="335.32" class="st1" width="10.89" height="34.53"/>
<rect x="771.93" y="231.71" class="st10" width="10.89" height="138.14"/>
<rect x="771.93" y="231.71" class="st1" width="10.89" height="138.14"/>
<path class="st10" d="M784.46,369.85h10.89H784.46z"/>
<path class="st1" d="M784.46,369.85h10.89H784.46z"/>
<path class="st10" d="M796.98,369.85h10.89H796.98z"/>
<path class="st1" d="M796.98,369.85h10.89H796.98z"/>
<rect x="809.51" y="266.25" class="st11" width="10.89" height="103.6"/>
<rect x="809.51" y="266.25" class="st1" width="10.89" height="103.6"/>
<path class="st11" d="M822.04,369.85h10.89H822.04z"/>
<path class="st1" d="M822.04,369.85h10.89H822.04z"/>
<path class="st11" d="M834.56,369.85h10.89H834.56z"/>
<path class="st1" d="M834.56,369.85h10.89H834.56z"/>
<rect x="847.09" y="300.78" class="st11" width="10.89" height="69.07"/>
<rect x="847.09" y="300.78" class="st1" width="10.89" height="69.07"/>
<rect x="859.62" y="335.32" class="st11" width="10.89" height="34.53"/>
<rect x="859.62" y="335.32" class="st1" width="10.89" height="34.53"/>
<path class="st11" d="M872.15,369.85h10.89H872.15z"/>
<path class="st1" d="M872.15,369.85h10.89H872.15z"/>
<rect x="884.67" y="59.04" class="st12" width="10.89" height="310.81"/>
<rect x="884.67" y="59.04" class="st1" width="10.89" height="310.81"/>
<path class="st12" d="M897.2,369.85h10.89H897.2z"/>
<path class="st1" d="M897.2,369.85h10.89H897.2z"/>
<rect x="909.73" y="300.78" class="st12" width="10.89" height="69.07"/>
<rect x="909.73" y="300.78" class="st1" width="10.89" height="69.07"/>
<rect x="922.26" y="335.32" class="st12" width="10.89" height="34.53"/>
<rect x="922.26" y="335.32" class="st1" width="10.89" height="34.53"/>
<path class="st12" d="M934.78,369.85h10.89H934.78z"/>
<path class="st1" d="M934.78,369.85h10.89H934.78z"/>
<path class="st12" d="M947.31,369.85h10.89H947.31z"/>
<path class="st1" d="M947.31,369.85h10.89H947.31z"/>
<path class="st13" d="M959.84,369.85h10.89H959.84z"/>
<path class="st1" d="M959.84,369.85h10.89H959.84z"/>
<path class="st14" d="M972.37,369.85h10.89H972.37z"/>
<path class="st1" d="M972.37,369.85h10.89H972.37z"/>
<path class="st14" d="M984.89,369.85h10.89H984.89z"/>
<path class="st1" d="M984.89,369.85h10.89H984.89z"/>
<path class="st15" d="M997.42,369.85h10.89H997.42z"/>
<path class="st1" d="M997.42,369.85h10.89H997.42z"/>
<path class="st15" d="M1009.95,369.85h10.89H1009.95z"/>
<path class="st1" d="M1009.95,369.85h10.89H1009.95z"/>
<path class="st15" d="M1022.48,369.85h10.89H1022.48z"/>
<path class="st1" d="M1022.48,369.85h10.89H1022.48z"/>
<rect x="1035" y="266.25" class="st16" width="10.89" height="103.6"/>
<rect x="1035" y="266.25" class="st1" width="10.89" height="103.6"/>
<rect x="1047.53" y="266.25" class="st16" width="10.89" height="103.6"/>
<rect x="1047.53" y="266.25" class="st1" width="10.89" height="103.6"/>
<rect x="1060.06" y="197.18" class="st16" width="10.89" height="172.67"/>
<rect x="1060.06" y="197.18" class="st1" width="10.89" height="172.67"/>
<rect x="1072.59" y="335.32" class="st16" width="10.89" height="34.53"/>
<rect x="1072.59" y="335.32" class="st1" width="10.89" height="34.53"/>
<rect x="1085.11" y="300.78" class="st16" width="10.89" height="69.07"/>
<rect x="1085.11" y="300.78" class="st1" width="10.89" height="69.07"/>
<path class="st17" d="M1097.64,369.85h10.89H1097.64z"/>
<path class="st1" d="M1097.64,369.85h10.89H1097.64z"/>
<text transform="matrix(1 0 0 1 15.8398 12.2402)" class="st18 st19">Classification of small indels</text>
<text transform="matrix(1 0 0 1 15.8398 427.6797)"><tspan x="0" y="0" class="st20 st21">In</tspan><tspan x="7.51" y="0" class="st20 st21">d</tspan><tspan x="12.52" y="0" class="st20 st21">els in</tspan><tspan x="33.52" y="0" class="st20 st21">p</tspan><tspan x="38.54" y="0" class="st20 st21">ut </tspan><tspan x="48.55" y="0" class="st20 st21">=</tspan><tspan x="53.81" y="0" class="st20 st21"> 85 </tspan><tspan x="68.82" y="0" class="st20 st21">|</tspan><tspan x="71.16" y="0" class="st20 st21"> In</tspan><tspan x="81.17" y="0" class="st20 st21">d</tspan><tspan x="86.18" y="0" class="st20 st21">els annotate</tspan><tspan x="135.22" y="0" class="st20 st21">d</tspan><tspan x="140.23" y="0" class="st20 st21"> </tspan><tspan x="142.73" y="0" class="st20 st21">=</tspan><tspan x="148" y="0" class="st20 st21"> 85</tspan></text>
<g>
	<defs>
		<rect id="SVGID_1_" x="15.84" y="59.04" width="1134.72" height="313.92"/>
	</defs>
	<clipPath id="SVGID_2_">
		<use xlink:href="#SVGID_1_"  style="overflow:visible;"/>
	</clipPath>
	<g class="st22">
		<text transform="matrix(1 0 0 1 56.23 68.4902)"><tspan x="0" y="0" class="st20 st21">B</tspan><tspan x="6" y="0" class="st20 st21">R</tspan><tspan x="12.49" y="0" class="st20 st21">CA</tspan><tspan x="24.99" y="0" class="st20 st21">+</tspan><tspan x="30.26" y="0" class="st20 st21">/</tspan><tspan x="32.76" y="0" class="st20 st21">P</tspan><tspan x="38.75" y="0" class="st20 st21">t</tspan><tspan x="41.26" y="0" class="st20 st21">−</tspan><tspan x="46.52" y="0" class="st20 st21">S</tspan><tspan x="52.51" y="0" class="st20 st21">en</tspan></text>
	</g>
</g>
<line class="st23" x1="44.64" y1="369.85" x2="44.64" y2="76.31"/>
<line class="st23" x1="44.64" y1="369.85" x2="37.44" y2="369.85"/>
<line class="st23" x1="44.64" y1="311.14" x2="37.44" y2="311.14"/>
<line class="st23" x1="44.64" y1="252.43" x2="37.44" y2="252.43"/>
<line class="st23" x1="44.64" y1="193.73" x2="37.44" y2="193.73"/>
<line class="st23" x1="44.64" y1="135.02" x2="37.44" y2="135.02"/>
<line class="st23" x1="44.64" y1="76.31" x2="37.44" y2="76.31"/>
<text transform="matrix(1 0 0 1 25.2402 373.0801)" class="st20 st21">0</text>
<text transform="matrix(1 0 0 1 25.2402 314.3701)" class="st20 st21">2</text>
<text transform="matrix(1 0 0 1 25.2402 255.6699)" class="st20 st21">4</text>
<text transform="matrix(1 0 0 1 25.2402 196.96)" class="st20 st21">6</text>
<text transform="matrix(1 0 0 1 25.2402 138.25)" class="st20 st21">8</text>
<text transform="matrix(1 0 0 1 20.23 79.54)" class="st20 st21">10</text>
<text transform="matrix(-6.123234e-17 -1 1 -6.123234e-17 9.3597 253.9302)"><tspan x="0" y="0" class="st20 st24">P</tspan><tspan x="6.78" y="0" class="st20 st24">er</tspan><tspan x="16.55" y="0" class="st20 st24">c</tspan><tspan x="22.07" y="0" class="st20 st24">enta</tspan><tspan x="43.47" y="0" class="st20 st24">g</tspan><tspan x="49.6" y="0" class="st20 st24">e (%)</tspan></text>
<text transform="matrix(1 0 0 1 61.3701 395.2803)" class="st20 st25">1</text>
<text transform="matrix(1 0 0 1 73.8901 395.2803)" class="st20 st25">2</text>
<text transform="matrix(1 0 0 1 86.4199 395.2803)" class="st20 st25">3</text>
<text transform="matrix(1 0 0 1 98.9502 395.2803)" class="st20 st25">4</text>
<text transform="matrix(1 0 0 1 111.48 395.2803)" class="st20 st25">5</text>
<text transform="matrix(1 0 0 1 121.96 395.2803)" class="st20 st25">6+</text>
<text transform="matrix(1 0 0 1 136.5298 395.2803)" class="st20 st25">1</text>
<text transform="matrix(1 0 0 1 149.0601 395.2803)" class="st20 st25">2</text>
<text transform="matrix(1 0 0 1 161.5898 395.2803)" class="st20 st25">3</text>
<text transform="matrix(1 0 0 1 174.1099 395.2803)" class="st20 st25">4</text>
<text transform="matrix(1 0 0 1 186.6401 395.2803)" class="st20 st25">5</text>
<text transform="matrix(1 0 0 1 197.1201 395.2803)" class="st20 st25">6+</text>
<text transform="matrix(1 0 0 1 211.7002 395.2803)" class="st20 st25">0</text>
<text transform="matrix(1 0 0 1 224.2202 395.2803)" class="st20 st25">1</text>
<text transform="matrix(1 0 0 1 236.75 395.2803)" class="st20 st25">2</text>
<text transform="matrix(1 0 0 1 249.2798 395.2803)" class="st20 st25">3</text>
<text transform="matrix(1 0 0 1 261.8101 395.2803)" class="st20 st25">4</text>
<text transform="matrix(1 0 0 1 272.29 395.2803)" class="st20 st25">5+</text>
<text transform="matrix(1 0 0 1 286.8599 395.2803)" class="st20 st25">0</text>
<text transform="matrix(1 0 0 1 299.3901 395.2803)" class="st20 st25">1</text>
<text transform="matrix(1 0 0 1 311.9199 395.2803)" class="st20 st25">2</text>
<text transform="matrix(1 0 0 1 324.4399 395.2803)" class="st20 st25">3</text>
<text transform="matrix(1 0 0 1 336.9702 395.2803)" class="st20 st25">4</text>
<text transform="matrix(1 0 0 1 347.4502 395.2803)" class="st20 st25">5+</text>
<text transform="matrix(1 0 0 1 362.02 395.2803)" class="st20 st25">1</text>
<text transform="matrix(1 0 0 1 374.5498 395.2803)" class="st20 st25">2</text>
<text transform="matrix(1 0 0 1 387.0801 395.2803)" class="st20 st25">3</text>
<text transform="matrix(1 0 0 1 399.6099 395.2803)" class="st20 st25">4</text>
<text transform="matrix(1 0 0 1 412.1299 395.2803)" class="st20 st25">5</text>
<text transform="matrix(1 0 0 1 422.6201 395.2803)" class="st20 st25">6+</text>
<text transform="matrix(1 0 0 1 437.1899 395.2803)" class="st20 st25">1</text>
<text transform="matrix(1 0 0 1 449.7202 395.2803)" class="st20 st25">2</text>
<text transform="matrix(1 0 0 1 462.2402 395.2803)" class="st20 st25">3</text>
<text transform="matrix(1 0 0 1 474.77 395.2803)" class="st20 st25">4</text>
<text transform="matrix(1 0 0 1 487.2998 395.2803)" class="st20 st25">5</text>
<text transform="matrix(1 0 0 1 497.7798 395.2803)" class="st20 st25">6+</text>
<text transform="matrix(1 0 0 1 512.3501 395.2803)" class="st20 st25">1</text>
<text transform="matrix(1 0 0 1 524.8799 395.2803)" class="st20 st25">2</text>
<text transform="matrix(1 0 0 1 537.4102 395.2803)" class="st20 st25">3</text>
<text transform="matrix(1 0 0 1 549.9399 395.2803)" class="st20 st25">4</text>
<text transform="matrix(1 0 0 1 562.46 395.2803)" class="st20 st25">5</text>
<text transform="matrix(1 0 0 1 572.9502 395.2803)" class="st20 st25">6+</text>
<text transform="matrix(1 0 0 1 587.5195 395.2803)" class="st20 st25">1</text>
<text transform="matrix(1 0 0 1 600.0498 395.2803)" class="st20 st25">2</text>
<text transform="matrix(1 0 0 1 612.5703 395.2803)" class="st20 st25">3</text>
<text transform="matrix(1 0 0 1 625.0996 395.2803)" class="st20 st25">4</text>
<text transform="matrix(1 0 0 1 637.6299 395.2803)" class="st20 st25">5</text>
<text transform="matrix(1 0 0 1 648.1104 395.2803)" class="st20 st25">6+</text>
<text transform="matrix(1 0 0 1 662.6797 395.2803)" class="st20 st25">0</text>
<text transform="matrix(1 0 0 1 675.21 395.2803)" class="st20 st25">1</text>
<text transform="matrix(1 0 0 1 687.7402 395.2803)" class="st20 st25">2</text>
<text transform="matrix(1 0 0 1 700.2598 395.2803)" class="st20 st25">3</text>
<text transform="matrix(1 0 0 1 712.79 395.2803)" class="st20 st25">4</text>
<text transform="matrix(1 0 0 1 723.2695 395.2803)" class="st20 st25">5+</text>
<text transform="matrix(1 0 0 1 737.8496 395.2803)" class="st20 st25">0</text>
<text transform="matrix(1 0 0 1 750.3701 395.2803)" class="st20 st25">1</text>
<text transform="matrix(1 0 0 1 762.9004 395.2803)" class="st20 st25">2</text>
<text transform="matrix(1 0 0 1 775.4297 395.2803)" class="st20 st25">3</text>
<text transform="matrix(1 0 0 1 787.96 395.2803)" class="st20 st25">4</text>
<text transform="matrix(1 0 0 1 798.4404 395.2803)" class="st20 st25">5+</text>
<text transform="matrix(1 0 0 1 813.0098 395.2803)" class="st20 st25">0</text>
<text transform="matrix(1 0 0 1 825.54 395.2803)" class="st20 st25">1</text>
<text transform="matrix(1 0 0 1 838.0703 395.2803)" class="st20 st25">2</text>
<text transform="matrix(1 0 0 1 850.5898 395.2803)" class="st20 st25">3</text>
<text transform="matrix(1 0 0 1 863.1201 395.2803)" class="st20 st25">4</text>
<text transform="matrix(1 0 0 1 873.5996 395.2803)" class="st20 st25">5+</text>
<text transform="matrix(1 0 0 1 888.1797 395.2803)" class="st20 st25">0</text>
<text transform="matrix(1 0 0 1 900.7002 395.2803)" class="st20 st25">1</text>
<text transform="matrix(1 0 0 1 913.2305 395.2803)" class="st20 st25">2</text>
<text transform="matrix(1 0 0 1 925.7598 395.2803)" class="st20 st25">3</text>
<text transform="matrix(1 0 0 1 938.2803 395.2803)" class="st20 st25">4</text>
<text transform="matrix(1 0 0 1 948.7695 395.2803)" class="st20 st25">5+</text>
<text transform="matrix(1 0 0 1 963.3398 395.2803)" class="st20 st25">1</text>
<text transform="matrix(1 0 0 1 975.8701 395.2803)" class="st20 st25">1</text>
<text transform="matrix(1 0 0 1 988.3896 395.2803)" class="st20 st25">2</text>
<text transform="matrix(1 0 0 1 1000.9199 395.2803)" class="st20 st25">1</text>
<text transform="matrix(1 0 0 1 1013.4502 395.2803)" class="st20 st25">2</text>
<text transform="matrix(1 0 0 1 1025.9805 395.2803)" class="st20 st25">3</text>
<text transform="matrix(1 0 0 1 1038.5 395.2803)" class="st20 st25">1</text>
<text transform="matrix(1 0 0 1 1051.0303 395.2803)" class="st20 st25">2</text>
<text transform="matrix(1 0 0 1 1063.5605 395.2803)" class="st20 st25">3</text>
<text transform="matrix(1 0 0 1 1076.0898 395.2803)" class="st20 st25">4</text>
<text transform="matrix(1 0 0 1 1086.5703 395.2803)" class="st20 st25">5+</text>
<rect x="57.87" y="376.07" class="st0" width="73.53" height="9.32"/>
<rect x="57.87" y="376.07" class="st23" width="73.53" height="9.32"/>
<rect x="133.03" y="376.07" class="st2" width="73.53" height="9.32"/>
<rect x="133.03" y="376.07" class="st23" width="73.53" height="9.32"/>
<rect x="208.2" y="376.07" class="st3" width="73.53" height="9.32"/>
<rect x="208.2" y="376.07" class="st23" width="73.53" height="9.32"/>
<rect x="283.36" y="376.07" class="st4" width="73.53" height="9.32"/>
<rect x="283.36" y="376.07" class="st23" width="73.53" height="9.32"/>
<rect x="358.52" y="376.07" class="st5" width="73.53" height="9.32"/>
<rect x="358.52" y="376.07" class="st23" width="73.53" height="9.32"/>
<rect x="433.69" y="376.07" class="st6" width="73.53" height="9.32"/>
<rect x="433.69" y="376.07" class="st23" width="73.53" height="9.32"/>
<rect x="508.85" y="376.07" class="st7" width="73.53" height="9.32"/>
<rect x="508.85" y="376.07" class="st23" width="73.53" height="9.32"/>
<rect x="584.02" y="376.07" class="st8" width="73.53" height="9.32"/>
<rect x="584.02" y="376.07" class="st23" width="73.53" height="9.32"/>
<rect x="659.18" y="376.07" class="st9" width="73.53" height="9.32"/>
<rect x="659.18" y="376.07" class="st23" width="73.53" height="9.32"/>
<rect x="734.35" y="376.07" class="st10" width="73.53" height="9.32"/>
<rect x="734.35" y="376.07" class="st23" width="73.53" height="9.32"/>
<rect x="809.51" y="376.07" class="st11" width="73.53" height="9.32"/>
<rect x="809.51" y="376.07" class="st23" width="73.53" height="9.32"/>
<rect x="884.67" y="376.07" class="st12" width="73.53" height="9.32"/>
<rect x="884.67" y="376.07" class="st23" width="73.53" height="9.32"/>
<rect x="959.84" y="376.07" class="st13" width="10.89" height="9.32"/>
<rect x="959.84" y="376.07" class="st23" width="10.89" height="9.32"/>
<rect x="972.37" y="376.07" class="st14" width="23.42" height="9.32"/>
<rect x="972.37" y="376.07" class="st23" width="23.42" height="9.32"/>
<rect x="997.42" y="376.07" class="st15" width="35.95" height="9.32"/>
<rect x="997.42" y="376.07" class="st23" width="35.95" height="9.32"/>
<rect x="1035" y="376.07" class="st16" width="61" height="9.32"/>
<rect x="1035" y="376.07" class="st23" width="61" height="9.32"/>
<rect x="1097.64" y="376.07" class="st17" width="10.89" height="9.32"/>
<rect x="1097.64" y="376.07" class="st23" width="10.89" height="9.32"/>
<rect x="57.87" y="32.62" class="st0" width="73.53" height="15.54"/>
<rect x="57.87" y="32.62" class="st23" width="73.53" height="15.54"/>
<rect x="133.03" y="32.62" class="st2" width="73.53" height="15.54"/>
<rect x="133.03" y="32.62" class="st23" width="73.53" height="15.54"/>
<rect x="208.2" y="32.62" class="st3" width="73.53" height="15.54"/>
<rect x="208.2" y="32.62" class="st23" width="73.53" height="15.54"/>
<rect x="283.36" y="32.62" class="st4" width="73.53" height="15.54"/>
<rect x="283.36" y="32.62" class="st23" width="73.53" height="15.54"/>
<rect x="358.52" y="32.62" class="st5" width="73.53" height="15.54"/>
<rect x="358.52" y="32.62" class="st23" width="73.53" height="15.54"/>
<rect x="433.69" y="32.62" class="st6" width="73.53" height="15.54"/>
<rect x="433.69" y="32.62" class="st23" width="73.53" height="15.54"/>
<rect x="508.85" y="32.62" class="st7" width="73.53" height="15.54"/>
<rect x="508.85" y="32.62" class="st23" width="73.53" height="15.54"/>
<rect x="584.02" y="32.62" class="st8" width="73.53" height="15.54"/>
<rect x="584.02" y="32.62" class="st23" width="73.53" height="15.54"/>
<rect x="659.18" y="32.62" class="st9" width="73.53" height="15.54"/>
<rect x="659.18" y="32.62" class="st23" width="73.53" height="15.54"/>
<rect x="734.35" y="32.62" class="st10" width="73.53" height="15.54"/>
<rect x="734.35" y="32.62" class="st23" width="73.53" height="15.54"/>
<rect x="809.51" y="32.62" class="st11" width="73.53" height="15.54"/>
<rect x="809.51" y="32.62" class="st23" width="73.53" height="15.54"/>
<rect x="884.67" y="32.62" class="st12" width="73.53" height="15.54"/>
<rect x="884.67" y="32.62" class="st23" width="73.53" height="15.54"/>
<rect x="959.84" y="32.62" class="st13" width="10.89" height="15.54"/>
<rect x="959.84" y="32.62" class="st23" width="10.89" height="15.54"/>
<rect x="972.37" y="32.62" class="st14" width="23.42" height="15.54"/>
<rect x="972.37" y="32.62" class="st23" width="23.42" height="15.54"/>
<rect x="997.42" y="32.62" class="st15" width="35.95" height="15.54"/>
<rect x="997.42" y="32.62" class="st23" width="35.95" height="15.54"/>
<rect x="1035" y="32.62" class="st16" width="61" height="15.54"/>
<rect x="1035" y="32.62" class="st23" width="61" height="15.54"/>
<rect x="1097.64" y="32.62" class="st17" width="10.89" height="15.54"/>
<rect x="1097.64" y="32.62" class="st23" width="10.89" height="15.54"/>
<text transform="matrix(1 0 0 1 91.3799 43.6201)" class="st20 st21">C</text>
<text transform="matrix(1 0 0 1 167.0498 43.6201)" class="st20 st21">T</text>
<text transform="matrix(1 0 0 1 241.71 43.6201)" class="st20 st21">C</text>
<text transform="matrix(1 0 0 1 317.3799 43.6201)" class="st26 st20 st21">T</text>
<text transform="matrix(1 0 0 1 392.79 43.5498)" class="st20 st21">2</text>
<text transform="matrix(1 0 0 1 467.9502 43.4702)" class="st20 st21">3</text>
<text transform="matrix(1 0 0 1 543.1201 43.5498)" class="st20 st21">4</text>
<text transform="matrix(1 0 0 1 615.8096 43.3999)" class="st26 st27 st21">≥</text>
<text transform="matrix(1 0 0 1 622.8301 43.3999)" class="st26 st20 st21">5</text>
<text transform="matrix(1 0 0 1 693.4404 43.5498)" class="st20 st21">2</text>
<text transform="matrix(1 0 0 1 768.6104 43.4702)" class="st20 st21">3</text>
<text transform="matrix(1 0 0 1 843.7695 43.5498)" class="st20 st21">4</text>
<text transform="matrix(1 0 0 1 916.4697 43.3999)" class="st26 st27 st21">≥</text>
<text transform="matrix(1 0 0 1 923.4902 43.3999)" class="st26 st20 st21">5</text>
<text transform="matrix(1 0 0 1 962.7803 43.5498)" class="st20 st21">2</text>
<text transform="matrix(1 0 0 1 984.8398 43.4702)" class="st20 st21">3</text>
<text transform="matrix(1 0 0 1 1012.8896 43.5498)" class="st20 st21">4</text>
<text transform="matrix(1 0 0 1 1060.5303 43.3999)" class="st26 st27 st21">≥</text>
<text transform="matrix(1 0 0 1 1067.5605 43.3999)" class="st26 st20 st21">5</text>
<text transform="matrix(1 0 0 1 107.7002 22.4902)"><tspan x="0" y="0" class="st20 st21">1</tspan><tspan x="5" y="0" class="st20 st21">bp</tspan><tspan x="15.03" y="0" class="st20 st21"> </tspan><tspan x="17.53" y="0" class="st20 st21">d</tspan><tspan x="22.54" y="0" class="st20 st21">eletion</tspan></text>
<text transform="matrix(1 0 0 1 256.6001 22.4902)"><tspan x="0" y="0" class="st20 st21">1</tspan><tspan x="5" y="0" class="st20 st21">bp</tspan><tspan x="15.03" y="0" class="st20 st21"> inse</tspan><tspan x="34.04" y="0" class="st20 st21">r</tspan><tspan x="37.39" y="0" class="st20 st21">tion</tspan></text>
<text transform="matrix(1 0 0 1 459.6299 18.02)"><tspan x="0" y="0" class="st20 st21">&gt;</tspan><tspan x="5.27" y="0" class="st20 st21">1</tspan><tspan x="10.27" y="0" class="st20 st21">bp</tspan><tspan x="20.29" y="0" class="st20 st21"> </tspan><tspan x="22.8" y="0" class="st20 st21">d</tspan><tspan x="27.81" y="0" class="st20 st21">eletion at re</tspan><tspan x="74.83" y="0" class="st20 st21">p</tspan><tspan x="79.85" y="0" class="st20 st21">eats</tspan></text>
<text transform="matrix(1 0 0 1 475.77 28.8198)"><tspan x="0" y="0" class="st20 st21">(</tspan><tspan x="3" y="0" class="st20 st21">d</tspan><tspan x="8.01" y="0" class="st20 st21">eletion len</tspan><tspan x="49.03" y="0" class="st20 st21">g</tspan><tspan x="54.04" y="0" class="st20 st21">th)</tspan></text>
<text transform="matrix(1 0 0 1 758.8604 18.02)"><tspan x="0" y="0" class="st20 st21">&gt;</tspan><tspan x="5.26" y="0" class="st20 st21">1</tspan><tspan x="10.27" y="0" class="st20 st21">bp</tspan><tspan x="20.29" y="0" class="st20 st21"> inse</tspan><tspan x="39.3" y="0" class="st20 st21">r</tspan><tspan x="42.66" y="0" class="st20 st21">tion at re</tspan><tspan x="77.68" y="0" class="st20 st21">p</tspan><tspan x="82.69" y="0" class="st20 st21">eats</tspan></text>
<text transform="matrix(1 0 0 1 775 28.8198)"><tspan x="0" y="0" class="st20 st21">(inse</tspan><tspan x="19.5" y="0" class="st20 st21">r</tspan><tspan x="22.86" y="0" class="st20 st21">tion len</tspan><tspan x="51.88" y="0" class="st20 st21">g</tspan><tspan x="56.89" y="0" class="st20 st21">th)</tspan></text>
<text transform="matrix(1 0 0 1 973.9102 18.02)"><tspan x="0" y="0" class="st20 st21">Deletion w/ mi</tspan><tspan x="56.51" y="0" class="st20 st21">c</tspan><tspan x="61.02" y="0" class="st20 st21">rohomolo</tspan><tspan x="98.53" y="0" class="st20 st21">g</tspan><tspan x="103.54" y="0" class="st20 st21">y</tspan></text>
<text transform="matrix(1 0 0 1 995.6602 28.8198)"><tspan x="0" y="0" class="st20 st21">(</tspan><tspan x="3" y="0" class="st20 st21">d</tspan><tspan x="8.01" y="0" class="st20 st21">eletion len</tspan><tspan x="49.03" y="0" class="st20 st21">g</tspan><tspan x="54.04" y="0" class="st20 st21">th)</tspan></text>
<text transform="matrix(1 0 0 1 1085.4697 18.02)"><tspan x="0" y="0" class="st20 st21">Com</tspan><tspan x="19" y="0" class="st20 st21">p</tspan><tspan x="24.01" y="0" class="st20 st21">l</tspan><tspan x="26.01" y="0" class="st20 st21">e</tspan><tspan x="30.75" y="0" class="st20 st21">x</tspan></text>
<text transform="matrix(1 0 0 1 1091.3301 28.8198)"><tspan x="0" y="0" class="st20 st21">in</tspan><tspan x="7" y="0" class="st20 st21">d</tspan><tspan x="12.01" y="0" class="st20 st21">els</tspan></text>
<text transform="matrix(1 0 0 1 81.48 411.4404)"><tspan x="0" y="0" class="st20 st24">Homo</tspan><tspan x="29.34" y="0" class="st20 st24">p</tspan><tspan x="35.46" y="0" class="st20 st24">olymer len</tspan><tspan x="86.2" y="0" class="st20 st24">g</tspan><tspan x="92.32" y="0" class="st20 st24">th</tspan></text>
<text transform="matrix(1 0 0 1 231.8101 411.4404)"><tspan x="0" y="0" class="st20 st24">Homo</tspan><tspan x="29.34" y="0" class="st20 st24">p</tspan><tspan x="35.46" y="0" class="st20 st24">olymer len</tspan><tspan x="86.2" y="0" class="st20 st24">g</tspan><tspan x="92.32" y="0" class="st20 st24">th</tspan></text>
<text transform="matrix(1 0 0 1 452.1001 411.5703)"><tspan x="0" y="0" class="st20 st24">Num</tspan><tspan x="23.22" y="0" class="st20 st24">b</tspan><tspan x="29.35" y="0" class="st20 st24">er of re</tspan><tspan x="64.2" y="0" class="st20 st24">p</tspan><tspan x="70.32" y="0" class="st20 st24">eat units</tspan></text>
<text transform="matrix(1 0 0 1 752.75 411.5703)"><tspan x="0" y="0" class="st20 st24">Num</tspan><tspan x="23.22" y="0" class="st20 st24">b</tspan><tspan x="29.35" y="0" class="st20 st24">er of re</tspan><tspan x="64.2" y="0" class="st20 st24">p</tspan><tspan x="70.32" y="0" class="st20 st24">eat units</tspan></text>
<text transform="matrix(1 0 0 1 974.1299 411.4404)"><tspan x="0" y="0" class="st20 st24">Mi</tspan><tspan x="11.6" y="0" class="st20 st24">c</tspan><tspan x="17.12" y="0" class="st20 st24">rohomolo</tspan><tspan x="62.96" y="0" class="st20 st24">g</tspan><tspan x="69.09" y="0" class="st20 st24">y len</tspan><tspan x="92.32" y="0" class="st20 st24">g</tspan><tspan x="98.45" y="0" class="st20 st24">th</tspan></text>
</svg>
